<svg xmlns="http://www.w3.org/2000/svg" width="137" height="32" viewBox="0 0 137 32">
    <defs>
        <linearGradient id="a" x1="50%" x2="50%" y1="0%" y2="100%">
            <stop offset="0%" stop-color="#76CDD8"/>
            <stop offset="100%" stop-color="#E2F86A"/>
        </linearGradient>
    </defs>
    <g fill="none" fill-rule="evenodd">
        <text fill="#FFF" font-family="Oswald-Medium, Oswald" font-size="16" font-weight="400" letter-spacing=".253" transform="translate(0 4)">
            <tspan x="43" y="19">VIDEO COURSE</tspan>
        </text>
        <path fill="url(#a)" fill-rule="nonzero" d="M16 32C7.163 32 0 24.837 0 16S7.163 0 16 0s16 7.163 16 16-7.163 16-16 16zm0-2c7.732 0 14-6.268 14-14S23.732 2 16 2 2 8.268 2 16s6.268 14 14 14zm6.752-13.168l-9.197 6.132A1 1 0 0 1 12 22.13V9.87a1 1 0 0 1 1.555-.833l9.197 6.132a1 1 0 0 1 0 1.664z"/>
    </g>
</svg>
